<?xml version="1.0" encoding="utf-8"?>
<!-- Generator: Adobe Illustrator 21.1.0, SVG Export Plug-In . SVG Version: 6.00 Build 0)  -->
<svg version="1.1" id="Layer_1" xmlns="http://www.w3.org/2000/svg" xmlns:xlink="http://www.w3.org/1999/xlink" x="0px" y="0px"
	 viewBox="0 0 734 734" style="enable-background:new 0 0 734 734;" xml:space="preserve">
<style type="text/css">
	.st0{fill:#39474E;}
	.st1{fill:#9ACDBB;}
	.st2{fill:#FFFFFF;}
</style>
<rect x="0.2" y="-0.1" class="st0" width="734" height="734"/>
<g>
	<path class="st1" d="M461.8,147c-66-20.9-245.9-32.1-335.8,89.9s-5.5,282.6,45.9,311s200,100.9,351.4,0S647.1,205.7,461.8,147z"/>
</g>
<g>
	<g>
		<path class="st2" d="M524.2,342.7c-40.4-15.8-70.6,6.1-111.5-10.5c-12.4,6.5-40,3.7-46.3-4.2c-6.7,1.7-10.6,6.2-18.9,6.3
			c0.5-2.3,4.2-1.4,4.2-4.2c-12.5,4.7-13.9-1.8-25.2,6.3c3-3.1,1.6-6.7-4.2-6.3c-30.3,4.6-57.1-5.3-84.1,8.4
			c11.3-8.4-23-6.8-25.2-6.3c-18.7,4.1-37.5,29-40,44.2c0,33.7,0,67.3,0,101c10.4,36.2-8.4,79.8,10.5,113.6c26,1,65.8-3.2,88.3,2.1
			c0.7,0,1.4,0,2.1,0c45-2.6,89.9-9.3,134.6-4.2c48.6-9.3,92.8,6.4,140.9-8.4c1.3-4.4-2.6-13.8,2.1-14.7c0-9.1,0-18.2,0-27.3
			C534.4,477.3,577.7,363.6,524.2,342.7z M530.5,567.7c-17.7,3-34.5-6.1-48.4,0c-2.5-7.7-3.2-19.4,2.1-25.2
			C484,432,475.1,432.7,468,430c-11.7,3.5-16.2,128-11.1,129.3c-0.6,5.8-14.1,1.8-21,6.3c-1.3-1.9-2.5-3.8,0-4.2
			c-5.4-3.3-16.7-2.8-21-2.1c-4.2,0.7-4.5-1.9-8.4-2.1c-10.3-0.6-21.4,8.5-23.1,8.4c-1,0-6.4-7.8-8.4-8.4c-17.5-5.7-51.7,9.6-67.3,0
			c-10.3,2.3-20.2,5-29.4,8.4c4.6-11.6-3.7-24.5-4.2-42.1c-0.8-28.6,6.7-60.9-2.1-82c-47.6-21.5-18.6,80.3-27.3,119.9
			c-13.3,0-26.6,0-40,0c-0.5-62.7-0.9-129.5-2.1-185.1c3-7.5,10.7-10.3,14.7-16.8c62.3-0.4,138.6-3,212.4,0
			c45.6,1.9,82.4-13.1,101,14.7C530.5,438.7,530.5,503.2,530.5,567.7z"/>
		<path class="st2" d="M389.6,304.8c7.6-1,8.4-9.6,16.8-2.1c3-14.1,19.4-9.4,23.1-16.8c4.5-9,14.1-18.4,21-35.8
			c-2.9-2.7-0.9-10.3-6.3-10.5c2.6-1.2,6.5,0,8.4-6.3c0.2-51.3-37.5-86.5-82-92.5c-4.2,0-8.4,0-12.6,0c-39,6.5-71.5,38.7-73.6,82
			C281.6,280.8,336.4,311.6,389.6,304.8z M391.7,176.5c4.2,0,2.7,5.7,8.4,4.2c-0.5,2.3-4.2,1.4-4.2,4.2
			c10.6,4.3,12.3,18.2,23.1,29.4c0.7,23.9-7.9,43.5-21,58.9c-24.3,13.9-56,6.7-79.9-6.3C275.6,213.8,344.6,133.6,391.7,176.5z"/>
	</g>
</g>
</svg>
