<?xml version="1.0" encoding="utf-8"?>
<!-- Generator: Adobe Illustrator 21.1.0, SVG Export Plug-In . SVG Version: 6.00 Build 0)  -->
<svg version="1.1" id="Layer_1" xmlns="http://www.w3.org/2000/svg" xmlns:xlink="http://www.w3.org/1999/xlink" x="0px" y="0px"
	 viewBox="0 0 734 734" style="enable-background:new 0 0 734 734;" xml:space="preserve">
<style type="text/css">
	.st0{fill:#39474E;}
	.st1{fill:#9ACDBB;}
	.st2{fill:#FFFFFF;}
</style>
<rect x="0.7" y="-0.1" class="st0" width="734" height="734"/>
<g>
	<path class="st1" d="M482.8,136.3c-66-20.9-245.9-32.1-335.8,89.9s-5.5,282.6,45.9,311c51.4,28.4,200,100.9,351.4,0
		S668.1,195,482.8,136.3z"/>
</g>
<g>
	<g>
		<path class="st2" d="M525.8,369.6c0-2.7,9.7-9.4,13.3-14.9c8.3-12.9,18.1-47.5,18.3-58.1c0.1-11.8-3.8-26.8-8.3-38.2
			c4.5,0.5,3,7,6.6,8.3c-6.7-14.1-5.7-26.3-19.9-38.2c2.4,0.4,2.8,2.7,5,3.3c-5.1-7.8-11.3-13.8-21.6-19.9c6.4,0.3,0.6-1.4,1.7-5
			c-18.2-16.3-40.8-23.3-64.7-29.9c-4.4,0-8.9,0-13.3,0c-6.8,1.5-11.3,5.3-18.3,6.6c-0.9-2.4,6.5-4,1.7-5
			c-25.6,2.5-42.6,12.3-59.8,26.6c-11.4-4-35.3-20.1-41.5-16.6c-3.1,1.8-9.7-3.3-10-3.3c-22.2-2.3-41.8,1-58.1,6.6
			c-23.2,8.1-37.8,25.4-54.8,39.8c-7.5,18.5-18.9,33.2-21.6,56.4c0,7.7,0,15.5,0,23.2c4.2,22.3,9.4,40.7,21.6,58.1
			c-4.4,9.6-17.1,13-19.9,24.9c-5.3,22.8,8.2,40,23.2,48.1c4.4,0,8.9,0,13.3,0c3.1,22.9,17.2,34.8,41.5,36.5
			c-7,26,19.6,32.4,36.5,39.9c0.9,22.9,18.5,35.4,38.2,33.2c14.7-1.7,21.8-17.1,33.2-19.9c17.4,32.8,71.8,36.8,76.4-11.6
			c23.2-1.1,33.2-15.5,34.9-38.2c26.9,2,34.1-15.7,38.2-36.5c16,0.6,31.7-9.4,34.9-23.2C559.7,390.5,525.7,384.9,525.8,369.6z
			 M389.7,211.9c11.9-1.9,22-5.6,31.6-10c3.7-0.9,2.4,3.2,5,3.3c5.7-5.7,24.4-1.2,26.6,3.3c7.2,0.5,5.8-5.9,13.3-3.3
			c-0.4,1.8-3.3,1.1-3.3,3.3c3-2.6,8.9,4,13.3-1.7c10.5,12.5,28.7,26,44.8,34.9c0.1,4.2-1.2,2-3.3,1.7
			c17.5,27.9,23.5,79.1-3.3,107.9c-14-6.8-19-22.7-31.5-31.5c-10.7-7.5-25.7-22.9-39.8-36.5c-12.6-12.1-22.6-29.6-51.5-21.6
			c-14.1,6.9-20,22.1-33.2,29.9c-24,20.3-35.7,52.9-73,59.8c-7.6-8.6-15.4-20-6.6-31.5c12.6-16.6,30.4-30.4,49.8-49.8
			C352.2,246,370.5,228.8,389.7,211.9z M202.1,406.1c12.1-3.5,22.6-39.7,41.5-31.5c7.4,3.2,9.1,15,10,23.2
			C244,413.9,204.2,444,202.1,406.1z M261.8,462.6c-18.9,3.9-23-9.9-21.6-21.6c11.7-0.4,21.2-38.5,41.5-28.2
			c6.3,3.2,5.5,11.8,10,19.9C282.1,443,272.4,453.2,261.8,462.6z M283.4,499.1c-20.1-11,18.1-57.2,34.9-49.8
			c6.2,2.8,8.5,12.8,10,23.2C318.8,473,304,510.3,283.4,499.1z M334.9,533.9c-5,0.3-1.7-5.7-5,0c-1.4-8.3-13.6-4.9-13.3-18.3
			c0.4-15.4,44.6-51.1,49.8-19.9C368.9,510.7,350.3,533.1,334.9,533.9z M490.9,406.1c-38.5-0.7,1.4,29.2,8.3,41.5
			c-5.2,6.5-2.5,10.7-8.3,16.6c-10.1,3.9-15.8-3.3-24.9-5c1.7-6.6,5.2,0.5,5-5c0.5-3.4-4.8,0.3-5,1.7c-3.6-10.3-7.7-16.9-19.9-21.6
			c-0.3,2.8-15.6,9.9-10,18.3c-1.4,3.4-3.4-0.4-3.2-3.6c-3.1,9.7,10.5,20.9,21.5,21.8c-1.8,5.4,4,17.8,1.7,23.2
			c-1.4,4.7-12,0.2-11.6,6.6c-12.8-7-22-17.2-28.2-26.6c-6.5,2.9-7.9-1.8-14.9,1.7c-10.2,13,0.4,21.1,8.3,24.9
			c0.4,2.8-3.2,0.7-4.5-0.9c5.4,9.1,27.5,28.9,4.5,39.1c-12.5-3.6-17.6-14.5-26.6-21.6c8.4-28.4-1.8-54.4-33.2-54.8
			c-4.2-21.2-14.9-36.1-38.2-38.2c-1-18.3-15.9-34.3-38.2-36.5c2.6-24.1-25.6-45.9-49.8-33.2c-19.7-15.5-26.2-57.7-16.6-84.7
			c18.2-51.3,91.7-84.5,146.1-48.1c-24.1,31.8-61.8,57-86.3,88c-16.2,20.4-4.4,52.2,19.9,56.4c18,3.1,32.2-9,46.5-23.2
			c18.7-18.5,40.4-48.2,56.4-61.4c20.2-16.6,39.5,14.6,53.1,28.2c25.7,25.7,41.7,41.7,69.7,69.7c11.7,11.7,25.9,21.1,26.6,31.5
			C541.5,447.4,491.4,425.4,490.9,406.1z"/>
		<path class="st2" d="M432.9,449c0.3-1,0.8-2.1,1.6-3.1C433.4,446.4,433,447.7,432.9,449z"/>
	</g>
</g>
</svg>
