<?xml version="1.0" encoding="utf-8"?>
<!-- Generator: Adobe Illustrator 21.1.0, SVG Export Plug-In . SVG Version: 6.00 Build 0)  -->
<svg version="1.1" id="Layer_1" xmlns="http://www.w3.org/2000/svg" xmlns:xlink="http://www.w3.org/1999/xlink" x="0px" y="0px"
	 viewBox="0 0 1147.3 438.5" style="enable-background:new 0 0 1147.3 438.5;" xml:space="preserve">
<style type="text/css">
	.st0{fill:#99CCBA;}
</style>
<g>
	<path class="st0" d="M177.6,36.3C155.1,51.8,77,107.1,55.1,173.6S42.9,287,64.7,288c21.8,1.1,64.9-22.4,102.2-113.9
		c0,0-51.2,172.1,30.9,162.9c42.6-4.8,45.2-45.8,38.9-45.8s-9.6,24.5-28.7,30.3c-19.2,5.9-45.8,3.2-32.5-53.8s45.2-177.8,46.3-190
		c1.1-12.2-11.2-24.5-19.7-8c-8.5,16.5-40.4,89.4-52.7,112.3s-49.3,83.6-72.9,91.5c-23.6,8-5.9-99,31.4-139.4s78.2-75.6,85.7-84.1
		S192.7,25.9,177.6,36.3z"/>
	<path class="st0" d="M302.9,125.2c-2.1,20.2-25.5,69.2-38.3,91.5c-12.8,22.4-44.7,97.9-53.2,127.7c-8.5,29.8-4.8,52.7-3.6,55.5
		c1.2,2.8,7.2,13.6,16.8-26.3s53.9-133.3,68.3-150.9c14.4-17.6,49.5-50.7,57.5-44.3c8,6.4,12.8,31.5,2.4,54.3
		c-10.4,22.8-35.9,58.3-43.5,58.3s-3.6-23.5,20.8-34.3c24.3-10.8,48.2-19.9,62.7-27.5c16-8.4,60.4-39,49.5-71
		c-2.8-8.2-8.5,39.8-37.9,57.1c-13.6,8-83.8,36.3-91,41.5c-7.2,5.2-34.7,33.1-16.8,49.9c18,16.8,63.5-34.3,75.4-91
		c12-56.7-23.5-65.5-49.5-37.1S284,215.9,284,215.9s27.5-57.8,30.3-70.3C319.9,121.3,302.9,125.2,302.9,125.2z"/>
	<path class="st0" d="M583.2,170.9c-13.6,8-126.9,90.2-134.1,95.4c-7.2,5.2-34.7,33.1-16.8,49.9s63.5-34.3,75.4-91
		c12-56.7-23.5-65.5-49.5-37.1s-38.3,37.5-38.3,37.5s27.5-57.8,30.3-70.3c5.6-24.3-11.4-20.5-11.4-20.5
		c-2.1,20.2-25.5,69.2-38.3,91.5c-12.8,22.4-44.7,97.9-53.2,127.7c-8.5,29.8-4.8,52.7-3.6,55.5c1.2,2.8,7.2,13.6,16.8-26.3
		c9.6-39.9,53.9-133.3,68.3-150.9c14.4-17.6,49.5-50.7,57.5-44.3c8,6.4,12.8,31.5,2.4,54.3s-35.9,58.3-43.5,58.3
		c-7.6,0-3.6-23.5,20.8-34.3c24.3-10.8,90.1-64.8,104.6-72.4"/>
	<path class="st0" d="M587.1,163.9c7.2-14.4,2.8-17.6-5.2-13.6c-8,4-12.4,28.7,12.8,37.5c25.1,8.8,29.1,8.8,29.1,8.8v21.2
		c0,0-29.5,36.7-35.9,71s11.6,32.7,15.6,32.7c9.2,0,33.1-23.5,41.5-50.7c0,0,9.2,37.5-29.9,59.9s-51.1-13.2-51.1-22.8
		c0-9.6,12.4-47.9,36.7-102.2c0,0-30.7-14-37.9-35.9s16-39.5,30.3-34.3c14.4,5.2,26.5,44.7-44.7,67.1"/>
	<path class="st0" d="M690.7,168.8c0,0-9.6-5.9-21.3,4.8c-11.7,10.6-41.5,63.9-18.1,81.4s53.2-22.9,62.3-39.4
		c9-16.5,6.9-45.8-8-46.3c-14.9-0.5,8,11.7,0,32.5s-19,34.8-40.4,47.5c-26,15.3,2.7-52.2,12.2-60.2S696.6,180.5,690.7,168.8z"/>
	<path class="st0" d="M809.5,165.2c-4.6-12.9-24.5-10-41.5,5.6s-47.4,44.9-43.1,75.3c4.3,30.3,31.9,34.6,60.1-14.4
		c0,0-17.6,69.7,6.4,80.9s56.4-11.2,62.8-34.6c0,0-2.7-8-6.9-2.1c-4.3,5.9-17.9,32.9-42,27.7c-24.2-5.2,6.4-85.7,10.1-94.7
		s6.4-18.6,5.3-23.9c-1.1-5.3-6.4-6.4-21.8,10.1c-15.4,16.5-37.3,62.3-50,58.5c-12.8-3.7-8.5-28.7,16.5-48.4
		S812.2,172.7,809.5,165.2z"/>
	<path class="st0" d="M928.6,185.5c8.5-6.4,16.5-28.7,8.5-26.1c-8,2.7-46.3,28.7-55.9,63.9s5.4,53.2,29.6,43.1
		c24.2-10.1,38.5-32.5,38.5-32.5s8-1.1,5.9,8c-2.1,9-32.5,34.1-49,39.9c-16.5,5.9-59.1-5.9-51.1-50.6c8-44.7,31.4-71.3,63.9-84.6
		c32.5-13.3,31.9,14.9,29.3,30.9S928.6,185.5,928.6,185.5z"/>
	<path class="st0" d="M970.4,174.7c0,0,79.1-61.6,93.7-76.1c19.7-19.7,41.5-54.8,21.8-49s-46.3,73.4-60.7,107
		c-14.4,33.5-21.8,72.4-21.8,72.4s42-60.1,63.3-62.8c21.3-2.7,26.6,8.5,14.9,37.3c-11.7,28.7-22.4,71.3-19.7,79.3
		c2.7,8,23.4,14.9,35.1-20.2c0,0,7.5,34.6-24.5,38.9s-35.7-22.9-28.2-49s24.5-65.5,22.9-70.8c-1.6-5.3-14.4-1.6-30.9,20.2
		c-16.5,21.8-47.4,74-53.2,74c-5.9,0-24.2,5.1-3.7-59.6c20.5-64.7,62.3-148,72.4-161.8s28.7-31.9,49.5-20.2
		c20.8,11.7-9.6,58.5-42,82C1026.8,139.6,973.1,183.3,970.4,174.7z"/>
</g>
</svg>
