<svg xmlns="http://www.w3.org/2000/svg" viewBox="0 0 734 734">
<style type="text/css">
	.st0{fill:#39474E;}
	.st1{fill:#9ACDBB;}
	.st2{fill:#FFFFFF;}
</style>
<rect x="0.7" y="-0.1" class="st0" width="734" height="734"/>
<g>
	<path class="st1" d="M482.8,136.3c-66-20.9-245.9-32.1-335.8,89.9s-5.5,282.6,45.9,311c51.4,28.4,200,100.9,351.4,0
		S668.1,195,482.8,136.3z"/>
</g>
<g>
	<g>
		<path class="st2" d="M372.5,188.9c24.2,2.5,14.7-8,25.7-8.6c-3.7-14.1-1.6-33.4-10.7-49.3c-3,0.2-6.1,0.4-6.4-2.1
			c-2.1,0-4.3,0-6.4,0c-2.1,2.9-5.7,4.3-8.6,6.4C369.6,153.7,363.5,171.8,372.5,188.9z"/>
		<path class="st2" d="M503.3,182.5c-8.8,5.5-8.4,2.6-12.9,0c-9,12.2-46.1,46.4-8.6,53.6C489.9,219.6,530.2,201,503.3,182.5z"/>
		<path class="st2" d="M509.8,334.7c18.5,6.8,33.2-1.6,55.7-6.4c0-2.9,0-5.7,0-8.6C551.3,294.5,492.9,301.4,509.8,334.7z"/>
		<path class="st2" d="M329.6,506.2c-25.9,64.3,52.5,105.7,90.1,53.6c1.8-18.1,4.9-35.5,2.1-47.2C376.6,503.3,376.4,495,329.6,506.2
			z M355.4,529.8c18,2.6,36.4-4.5,49.3,0C404.1,556.5,355.4,566.8,355.4,529.8z"/>
		<path class="st2" d="M276,231.8c21.3-8.4-1.9-28.1,4.3-36.5c-13.7-9.7-39.4-25.5-45,2.1C243.8,213.9,262.2,220.7,276,231.8z"/>
		<path class="st2" d="M359.7,223.2c-11.6,2.8-34.7,13.3-42.9,12.9c-2.3,6.8-9.8,18.3-23.6,17.2c-4.1,5.4,3.3,8.8-2.1,12.9
			c-0.2-2.6-0.6-5.1-4.3-4.3c4.3,8.1-5.1,8.1,0,17.2c-3.2-2.5-5.4-2.5-8.6,0c-5.1,19.7-11.9,45.6,0,55.8c-2.7-0.5-4.4-3.3-4.3,2.1
			c8.4,34.5,45.4,40.3,55.8,72.9c-7.1,17.2,2.1,39.7-2.1,62.2c4.3,1.5,4.9,6.5,8.6,8.6c29.4-5,68.7,7.9,90.1-6.4
			c7.8-19.3-6.4-40.4-4.3-62.2c4.5-47.1,61.8-46.9,55.8-102.9C472.1,258.4,433,225.3,359.7,223.2z M458.3,330.4
			c-7.2,29.7-51.2,28.3-53.6,64.3c-2.1,0-4.3,0-6.4,0c4.8,7.5-1.6,12.9,2.1,21.4c-7-4.1,0.1,1.8-6.4,4.3c-1.5,5.8,4.4,4.1,6.4,6.4
			c-1.2,4.8-3.4-2.6-6.4,2.1c8.5,6.7,0.8,10.3,2.1,17.2c-8,3.7-16.7-1.6-19.3,8.6c0.4-7.9-6.2-5.2-17.2-6.4c-4-23,2.6-41.5-4.3-60
			c-10.5-28.3-49.4-36.6-53.6-70.8c5.4-23.9,15.8-42.8,27.9-60c19.9-4.2,28.9-15.2,49.3-15C422.2,242.8,469.3,285.2,458.3,330.4z"/>
		<path class="st2" d="M183.8,319.7c0,2.9,0,5.7,0,8.6c11.1,13.2,19.7,10,36.5,6.4c8-1.7,20.7-0.5,23.6-8.6
			C235.9,300.5,197.3,295,183.8,319.7z"/>
	</g>
</g>
</svg>
