<?xml version="1.0" encoding="utf-8"?>
<!-- Generator: Adobe Illustrator 22.1.0, SVG Export Plug-In . SVG Version: 6.00 Build 0)  -->
<svg version="1.1" id="Layer_1" xmlns="http://www.w3.org/2000/svg" xmlns:xlink="http://www.w3.org/1999/xlink" x="0px" y="0px"
	 viewBox="0 0 658.6 438.5" style="enable-background:new 0 0 658.6 438.5;" xml:space="preserve">
<style type="text/css">
	.st0{fill:#9ACDBB;}
</style>
<path class="st0" d="M114.2,154.7c-12.5,1.2-24.3-1.9-23.7-13.7c0.6-11.8,1.2-41.1,104.6-85.3c0,0,5.6-5.6,0,18.7
	c-5.6,24.3-60.4,233.5-67.2,247.2S93.7,377,65,367S33.9,321,47,292.9c0,0-0.2-9.3-7.6,0c-7.4,9.3-19.8,57.8-3,75.6s62.9,18.3,80.3,0
	s37.4-28.1,67.9-149.9s44.8-174.7,39.2-182.8s-44.2,9.3-117.7,58.5c-64.1,43-18.4,75.9,8.1,67.9
	C126.5,158.5,114.2,154.7,114.2,154.7z"/>
<path class="st0" d="M188.4,257.2c21.7-12,39.7-23.4,43.5-29.9c3.8-6.5,8.7-17.9-7.1-12.5s10.3,50,13.6,56.5
	c3.3,6.5,15.8,23.4,9.8,75.5c-3.3,28.3-58,55.3-68.5,8.7c-8.1-36.4,97.8-95.1,101.6-96.7c3.8-1.6,12.2-2.9-70.6,59.8
	c-20.1,15.2-25.5,52.2,8.7,45.6c34.2-6.5-13.6-125-12.5-140.7c1.1-15.8,12-28.3,29.3-21.2s16.8,38-32.6,58.1
	C154.2,280.5,188.4,257.2,188.4,257.2z"/>
<path class="st0" d="M270.3,265.1c21.7-12,44.5-31.3,48.4-37.8c3.8-6.5,8.7-17.9-7.1-12.5s10.3,50,13.6,56.5
	c3.3,6.5,15.8,23.4,9.8,75.5c-3.3,28.3-58,55.3-68.5,8.7c-8.1-36.4,97.8-95.1,101.6-96.7s12.2-2.9-70.6,59.8
	c-20.1,15.2-25.5,52.2,8.7,45.6c34.2-6.5-13.6-125-12.5-140.7c1.1-15.8,12-28.3,29.3-21.2c17.4,7.1,11.4,41.7-38.1,61.8
	c-6.6,2.7-12.3,6.5-17.8,10C250.7,284.5,270.3,265.1,270.3,265.1z"/>
<path class="st0" d="M385.2,259.8c-11.9,22.4-44.4,64.2-18.9,91.6c24.3,26,58.4-40.4,58.4-40.4s-18.9,103.3,26,104.4
	c44.9,1.2,58.1-53.9,58.1-53.9s-4.2-5.4-12.6,10.8c-8.4,16.2-37.1,44.3-49.7,20.4c-12.6-23.9,12.6-110.1,12.6-115.5s-13.8-15-23.3-6
	c-9.6,9-38.3,72.4-53.9,72.4c-15.6,0,16.2-74.2,25.7-83.8C417.3,250.2,401,230.2,385.2,259.8z"/>
<path class="st0" d="M503.1,278.8c13.1-6.7,37.2-17.3,40.5-29.3c3.3-11.9-3.6-33.6-26.7-18.8c-23.1,14.8-51,40.5-42.6,83.8
	s65.5,21.3,70.1-7.6c3.4-21.3-10.5,24.2-42.3,21.3s-6.5-55.3,0-65c6.5-9.8,17.3-24.9,25.3-23.8c7.9,1.1,11.6,15.9-40.5,36.5
	C486.8,275.9,477.7,291.8,503.1,278.8z"/>
<path class="st0" d="M539.1,304.4c21.7-12,44.5-31.3,48.4-37.8c3.8-6.5,8.7-17.9-7.1-12.5c-15.8,5.4,10.3,50,13.6,56.5
	s15.8,23.4,9.8,75.5c-3.3,28.3-58,55.3-68.5,8.7c-8.1-36.4,97.8-95.1,101.6-96.7c3.8-1.6,12.2-2.9-70.6,59.8
	c-20.1,15.2-25.5,52.2,8.7,45.6c34.2-6.5-13.6-125-12.5-140.7s12-28.3,29.3-21.2c17.4,7.1,11.4,41.7-38.1,61.8
	c-6.6,2.7-11.5,15.3-17,18.8C520.3,332.6,539.1,304.4,539.1,304.4z"/>
</svg>
