<?xml version="1.0" encoding="utf-8"?>
<!-- Generator: Adobe Illustrator 21.1.0, SVG Export Plug-In . SVG Version: 6.00 Build 0)  -->
<svg version="1.1" id="Layer_1" xmlns="http://www.w3.org/2000/svg" xmlns:xlink="http://www.w3.org/1999/xlink" x="0px" y="0px"
	 viewBox="0 0 734 734" style="enable-background:new 0 0 734 734;" xml:space="preserve">
<style type="text/css">
	.st1{fill:#9ACDBB;}
	.st2{fill:#FFFFFF;}
</style>
<g>
	<path class="st1" d="M482.8,136.3c-66-20.9-245.9-32.1-335.8,89.9s-5.5,282.6,45.9,311c51.4,28.4,200,100.9,351.4,0
		S668.1,195,482.8,136.3z"/>
</g>
<g>
	<g>
		<path class="st2" d="M397.4,328c1.2,8.9,1.8-3.8,8.3,2.1c-0.9-9.5,4.9-9.5,10.4-16.6c1.8-10.3-1.5-13.6,4.2-20.8
			c-3.5-71.4-112.8-63.7-95.7,14.6C334.9,326.7,371,344.3,397.4,328z M347.5,271.9c22.8-17,35.9,1.6,37.4,27
			c-5.4,12.1-22.2,11.1-37.4,8.3C345.3,300.8,341,284.2,347.5,271.9z"/>
		<path class="st2" d="M551.3,350.9c-2.1-18-4.5-35.8-10.4-49.9c9.9-10.9,31.4-4.2,31.2-20.8c-0.3-19.1-23.9-10.9-39.5-4.2
			c3.7-14.6-14.4-18.5-20.8-33.3c0.3-8,8.4-8.2,10.4-14.6c-1.5-5.2-13.2,15.7-10.4,8.3c6.8-17.9,17.2-7.9,20.8-29.1
			c-6.9-21.5-31.1-11.7-37.8,2.1c0.1,0,0.2,0,0.4,0c0.4,1-0.4,1.9-1.4,2.7c-0.4,1.2-0.6,2.4-0.7,3.6c-4-0.8-1.3-2,0.7-3.6
			c0.3-0.9,0.6-1.8,1-2.7c-7.4-0.2-13.1,1.5-20.4-2.1c-6.7-3.3-6.4-16.3-16.6-16.6c12.5-22.8,6.1-48.2-18.7-39.5
			c-6.1,7.1-9.5,16.8-14.6,25c-13.6-1.1-24.6-4.2-37.4-2.1c-8.8-11.8,4.1-32.9-12.5-37.4c0-0.7,0-1.4,0-2.1c-4.9,0-9.7,0-14.6,0
			c-10.2,8.1-11,20.9-8.3,37.4c-12.6,3.3-29.5,2.4-41.6,6.2c-6.3-42.1-53.2-25.7-31.2,10.4c-7.4,12.7-23.3,16.9-33.3,27
			c-9.6-16.1-37.3-26.5-39.5-4.2c-1.4,13.8,11.8,14.7,18.7,25c-7.2,12.2-16.5,22.3-20.8,37.4c-12.4-1.3-24.7-9.6-35.4-6.2
			c-17.1,15.3,4.1,32.5,20.8,33.3c-4.1,14-5.8,30.2-8.3,45.8c-14.8-1.5-28.9-4.6-35.4,6.2c0,3.5,0,6.9,0,10.4
			c3.6,12.3,21,10.9,37.4,10.4c-4.9,15.9,7.2,29.9,6.2,43.7c-40.7,3.8-27.2,54.7,10.4,25c10,13.9,14.9,25.1,27,39.5
			c-2.5,12-16.7,12.4-18.7,25c-0.2,7.1,6.1,7.7,10.4,10.4c12.3-3.6,19.7-12.2,25-22.9c16.6,8.4,24.3,25.6,45.8,29.1
			c-3,10.8-11.2,16.5-10.4,31.2c14.5,19,24.1-10.7,27-22.9c15.6,2.5,36.2,11,49.9,8.3c8,5.1-6.4,37.8,12.5,37.4
			c14.3-1,4.5-26,10.4-35.4c16.7-2.7,32.2-6.6,49.9-8.3c5.8,10.2,5.9,26,18.7,29.1c19.3-5.8,3.3-25,0-37.4
			c13-11.2,30.6-17.9,41.6-31.2c10.7,5.2,12.9,19,27,20.8c4.2-0.6,5.5-4.2,8.3-6.2c-2.1-14.5-17.2-16.1-20.8-29.1
			c12.2-10.7,18.3-27.4,29.1-39.5c10.8-4.4,23.6,14.7,35.4,4.2c3-19-16.5-15.3-25-22.9c1-21.2,3.1-41.3,12.5-54.1
			c10.8-1,27.2,3.6,29.1-6.2C586.4,345,564.1,352.7,551.3,350.9z M387,523.6c-11.7,1.2-29.4,1.3-37.4-4.2c-6.8-1.2-9.7,1.4-14.6,2.1
			c-24-13-49.3-25.3-66.6-35.4c-3.5-1.4-1.3-4.8,2.1-4.2c-6.3-5.8-9.2-12.5-20.8-14.6c0.4-2.4,2.1-1.2,2.1,0c2-4.8-2.9-12-14.6-12.5
			c0.5-2.3,4.1-1.4,4.2-4.2c-15.6-17.6-16.4-48.4-35.4-64.5c1.8-6,3.1-2.3,8.3-2.1c-12.7-114.8,62-192.4,183-183
			c38.6,12,71.7,29.5,97.8,54.1C573.1,345.7,512.7,510.5,387,523.6z"/>
		<path class="st2" d="M355.8,348.8c-0.8-3-2.5-3.5,0-6.2c-9.1,2.7-22.7,10.5-25-2.1c-9.7,4.7-19.2,1.3-22.9,14.6
			c-6.9-11.8-26.4,18.7-27,29.1c-0.3,4.6,12,15.4,0,10.4c2,22.2-7.2,82.6,31.2,60.3c3-26.8-3.1-45.5,4.2-77
			c26.3-5.1,70.5-8.1,104-4.2c18.9,20.4-9.6,83.5,22.9,81.1c3.5-25.8,6.2-54.5,2.1-72.8C437.1,346,388,347.7,355.8,348.8z"/>
	</g>
</g>
</svg>
