<?xml version="1.0" encoding="utf-8"?>
<!-- Generator: Adobe Illustrator 21.1.0, SVG Export Plug-In . SVG Version: 6.00 Build 0)  -->
<svg version="1.1" id="Layer_1" xmlns="http://www.w3.org/2000/svg" xmlns:xlink="http://www.w3.org/1999/xlink" x="0px" y="0px"
	 viewBox="0 0 734 734" style="enable-background:new 0 0 734 734;" xml:space="preserve">
<style type="text/css">
	.st0{fill:#39484F;}
	.st1{fill:#99CCBA;}
	.st2{fill:#FFFFFF;}
	.st3{fill:#9ACDBB;}
	.st4{fill:#39474E;}
</style>
<rect class="st0" width="734" height="734"/>
<g>
	<path class="st1" d="M461.6,147.1c-66-20.9-245.9-32.1-335.8,89.9s-5.5,282.6,45.9,311c51.4,28.4,200,100.9,351.4,0
		S646.9,205.9,461.6,147.1z"/>
</g>
<g>
	<g>
		<path class="st2" d="M439.9,418.5c-16.1-11.6-31.7-6.5-48.4-2.1c1.9,3-4.2,9.7-10.5,14.7c-8.8,47.3,33.2,69,63.1,90.4
			c12-9.8,25.6-17.8,29.4-35.8C518,469.2,492.9,393.3,439.9,418.5z M477.7,458.5c-15.9,12.2-23.5,12.4-37.9,23.1
			c-9.4-14.4-36.4-22.7-27.3-40c7.3-14,41.2,0.3,61-6.3C477.7,440.3,478.4,448.7,477.7,458.5z"/>
		<path class="st2" d="M524,342.8c-40.4-15.8-70.6,6.1-111.5-10.5c-12.4,6.5-40,3.7-46.3-4.2c-6.7,1.7-10.6,6.2-18.9,6.3
			c0.5-2.3,4.2-1.4,4.2-4.2c-12.5,4.7-13.9-1.8-25.2,6.3c3-3.1,1.6-6.7-4.2-6.3c-30.3,4.6-57.1-5.3-84.1,8.4
			c11.3-8.4-23-6.8-25.2-6.3c-18.7,4.1-37.5,29-40,44.2c0,33.7,0,67.3,0,101c10.4,36.2-8.4,79.8,10.5,113.6c26,1,65.8-3.2,88.3,2.1
			c0.7,0,1.4,0,2.1,0c45-2.6,89.9-9.3,134.6-4.2c48.6-9.3,92.8,6.4,140.9-8.4c1.3-4.4-2.6-13.8,2.1-14.7c0-9.1,0-18.2,0-27.3
			C534.1,477.4,577.5,363.7,524,342.8z M530.3,567.9c-17.7,3-34.5-6.1-48.4,0c-2.5-7.7-3.2-19.4,2.1-25.2c-2.7-7.1-7.6-12-14.7-14.7
			c-11.7,3.5-17.7,30.2-12.6,31.5c-0.6,5.8-14.1,1.8-21,6.3c-1.3-1.9-2.5-3.8,0-4.2c-5.4-3.3-16.7-2.8-21-2.1
			c-4.2,0.7-4.5-1.9-8.4-2.1c-10.3-0.6-21.4,8.5-23.1,8.4c-1,0-6.4-7.8-8.4-8.4c-17.5-5.7-51.7,9.6-67.3,0
			c-10.3,2.3-20.2,5-29.4,8.4c4.6-11.6-3.7-24.5-4.2-42.1c-0.8-28.6,6.7-60.9-2.1-82c-47.6-21.5-18.6,80.3-27.3,119.9
			c-13.3,0-26.6,0-40,0c-0.5-62.7-0.9-129.5-2.1-185.1c3-7.5,10.7-10.3,14.7-16.8c62.3-0.4,138.6-3,212.4,0
			c45.6,1.9,82.4-13.1,101,14.7C530.3,438.9,530.3,503.4,530.3,567.9z"/>
		<path class="st2" d="M389.4,305c7.6-1,8.4-9.6,16.8-2.1c3-14.1,19.4-9.4,23.1-16.8c4.5-9,14.1-18.4,21-35.8
			c-2.9-2.7-0.9-10.3-6.3-10.5c2.6-1.2,6.5,0,8.4-6.3c0.2-51.3-37.5-86.5-82-92.5c-4.2,0-8.4,0-12.6,0c-39,6.5-71.5,38.7-73.6,82
			C281.4,280.9,336.2,311.7,389.4,305z M391.5,176.7c4.2,0,2.7,5.7,8.4,4.2c-0.5,2.3-4.2,1.4-4.2,4.2c10.6,4.3,12.3,18.2,23.1,29.4
			c0.7,23.9-7.9,43.5-21,58.9c-24.3,13.9-56,6.7-79.9-6.3C275.4,213.9,344.4,133.8,391.5,176.7z"/>
	</g>
</g>
<rect x="0.5" y="0.9" class="st3" width="734" height="734"/>
<g>
	<path class="st4" d="M475.5,148c-66-20.9-245.9-32.1-335.8,89.9s-5.5,282.6,45.9,311c51.4,28.4,200,100.9,351.4,0
		S660.9,206.7,475.5,148z"/>
</g>
<g>
	<path class="st2" d="M580.6,316.8c-36.3-8.6-50.4,14.6-63,34.8c-0.9-4.9-10.7-0.9-15.2-2.2c-0.6-28.4-12.3-45.6-21.7-65.2
		c5.6-0.2,3.1-8.5,8.7-8.7c20.6,15.2,55.7-0.3,66.7-13.3c-1,1-2.3,1.8-3.7,2.4c12.7-23.3,14.5-44.9,4.3-60.8
		c-3.2-5-17.6-11.8-23.9-15.2c-8.5-4.6-43.2-18.7-60.8,6.5c6.6,3.2-4.7,9.6-4.3,19.6c-4.1-1.6-1.5-6.5-6.5-2.2
		c-3.3,16.7,2.8,38.4,4.3,50c-16.8-16.1-44.4-19-60.8-30.4c52.8-23.8,41.4-102.5-21.7-102.1c10.5,0.3,16.2-0.1,6.5-4.3
		c-2.9,0-5.8,0-8.7,0c-19.7,8.8-41.4,14.9-47.8,34.8c-10.9,33.8,14.7,61,34.8,71.7c-3.6,9-18.8,7.8-30.4,13
		c-11.5,5.2-21.3,16.8-30.4,15.2c-4.4-13.6,4.1-22.6,2.2-36.9c-5-37.8-54.2-54.7-86.9-30.4c-34,40.2-7.6,91.7,36.9,91.2
		c8.2-0.1,20.5-10.2,26.1,0c7.7,6.6-8.2,14.5-13,23.9c-7,13.6-5.2,29.4-10.9,39.1c-15-4.3-15.8-20.4-26.1-28.2
		c-32.4-24.8-79.6,4.9-82.5,36.9c0,1.4,0,2.9,0,4.3c-0.1,43.7,55.8,69.6,86.9,39.1c10.1-9.9,7.8-28.9,26.1-23.9
		c-4.6,24.7,12.3,45.2,21.7,63c-13.3,8.8-37.1-1.6-52.1,4.3c-52.7,20.7-24.1,107.8,36.9,93.4c24.1-5.7,39.9-43.7,23.9-73.9
		c7.6,0.4,7.2-7.3,13-8.7c14.8,19.2,52.9,15.2,67.3,34.8c-5.3,15-18.4,12.8-26.1,21.7c-21.6,25.2-10.1,57.9,6.5,69.5
		c47.1,32.9,101.7-32.8,60.8-71.7c-6.7-6.4-11-3.4-21.7-13c-2.3-6.2-2.3-9.1,0-15.2c22.1-1.2,49.2-13.9,67.3-26.1
		c1.3,5.9,9.1,5.4,8.7,13c-31.1,79,90.4,89.2,86.9,19.6c-1.7-34-36.4-51.7-71.7-36.9c-4.4-3.6-10.1-5.8-10.9-13
		c16.1-15.8,19.8-43.9,30.4-65.2c4.3,0,8.7,0,13,0c11.5,26,30.7,40.3,58.6,34.8C623.8,397,619.8,326.2,580.6,316.8z M532.8,227.8
		c0.8,41.5-46,32.9-47.8,6.5C483,204.9,517.8,209.8,532.8,227.8z M237.4,251.7c0.7-5-0.4-8.3-2.2-10.9c7-6.1,6.4-19.7,13-26.1
		C302.3,203.5,276.8,286.3,237.4,251.7z M189.6,345.1c12.3-7.6,33-4.3,39.1,6.5C229.9,410.7,170.4,383,189.6,345.1z M265.6,510.2
		c-4.8-5.9-10.6-5.3-23.9-8.7c-1.3-8.5-4.8-7.7-4.3-15.2C240.2,435.2,321.6,491.3,265.6,510.2z M532.8,468.9
		c0.3,8.3,0.2,13.6,2.2,15.2c-8.5,0.9-5.9,12.9-8.7,19.6C475.3,527.8,481.6,438.1,532.8,468.9z M367.7,166.9
		c2.4,9.2,21.9-15.8,34.8,0c4.2,11.2,1.4,25.7,0,32.6C380.7,220.2,341.8,187.3,367.7,166.9z M411.2,544.9
		c-12.7,16.4-59.3,27.6-43.4-23.9C379.7,514.3,416.4,515.5,411.2,544.9z M352.5,449.3c5-6.1-17.7-11.7-28.2-19.6
		c24.8-47.8,110.7-44.7,130.3,0C435.5,456.4,381.7,469.3,352.5,449.3z M367.7,329.9c2.4,9.2,21.9-15.8,34.8,0
		c4.2,11.2,1.4,25.7,0,32.6C380.7,383.1,341.8,350.3,367.7,329.9z M469.8,414.6c-13.6-15.3-26.9-31.1-45.6-41.3
		c-4.1-1.5,2.3-3.4,2.2,0c3-3.3,8.7-15.6,4.3-23.9c3.2-2.5,5.3-6.3,10.9-6.5c1.4-9.4-9.1-6.8-8.7-15.2c7.6,6.2-0.5-15.2-4.3-8.7
		c2.8-20.7-42.5-41.1-54.3-21.7c-3.2-0.9,0.9-2.8,0-6.5c-34.6,4.2-51.8,50.5-32.6,82.5c-15.8,8.1-27.2,20.6-41.3,30.4
		c-16.8-32-7.3-85.5,17.4-117.3c18.1-4.8,26.1-17.8,41.3-21.7C445.8,242.3,516.5,338.6,469.8,414.6z M587.1,379.8
		c-6.8,3.3-13,7.2-21.7,8.7c-10.5-9.9-15.3-16.2-17.4-36.9c4.1-13.6,29.3-10.2,36.9-8.7C590.5,346.8,594,367.5,587.1,379.8z"/>
</g>
</svg>
